<?xml version="1.0" encoding="utf-8"?>
<!-- Generator: Adobe Illustrator 23.0.3, SVG Export Plug-In . SVG Version: 6.00 Build 0)  -->
<svg version="1.1" xmlns="http://www.w3.org/2000/svg" xmlns:xlink="http://www.w3.org/1999/xlink" x="0px" y="0px"
	 viewBox="0 0 32 32" style="enable-background:new 0 0 32 32;" xml:space="preserve">
<style type="text/css">
	.st0{fill:#FFFFFF;stroke:#000000;stroke-miterlimit:10;}
	.st1{fill:none;stroke:#000000;stroke-linecap:round;stroke-miterlimit:10;}
	.st2{fill:#F9F9F9;stroke:#000000;stroke-miterlimit:10;}
</style>
<g id="Layer_1">
</g>
<g id="Layer_2">
	<g>
		<g>
			<path class="st0" d="M20.04,26.3h-8.07c-1.68,0-3.04-1.36-3.04-3.04l-1.61-11.7c0-1.35,1.67-2.44,3.73-2.44h9.92
				c2.06,0,3.73,1.09,3.73,2.44l-1.61,11.7C23.07,24.94,21.71,26.3,20.04,26.3z"/>
			<line class="st1" x1="20.19" y1="12.81" x2="19.41" y2="23.93"/>
			<g>
				<line class="st1" x1="16" y1="12.81" x2="16" y2="23.93"/>
				<line class="st1" x1="11.81" y1="12.81" x2="12.59" y2="23.93"/>
			</g>
		</g>
		<g>
			<path class="st2" d="M25.55,10.11H6.45c-0.31,0-0.57-0.55-0.57-1.22c0-0.68,0.25-1.22,0.57-1.22h19.09
				c0.31,0,0.57,0.55,0.57,1.22C26.11,9.56,25.86,10.11,25.55,10.11z"/>
		</g>
		<g>
			<path class="st2" d="M19.58,7.17h-7.17c-0.12,0-0.21-0.33-0.21-0.73c0-0.4,0.09-0.73,0.21-0.73h7.17c0.12,0,0.21,0.33,0.21,0.73
				C19.8,6.84,19.7,7.17,19.58,7.17z"/>
		</g>
	</g>
	<text transform="matrix(1 0 0 1 640 526.4004)" style="font-family:'MyriadPro-Regular'; font-size:12px;">    position: absolute;</text>
</g>
</svg>
